solid OpenSCAD_Model
  facet normal 0.994522 0.104529 0
    outer loop
      vertex 2.5 0 5
      vertex 2.44537 0.519779 0
      vertex 2.44537 0.519779 5
    endloop
  endfacet
  facet normal 0.994522 0.104529 0
    outer loop
      vertex 2.44537 0.519779 0
      vertex 2.5 0 5
      vertex 2.5 0 0
    endloop
  endfacet
  facet normal -0.994522 0.104529 0
    outer loop
      vertex -2.5 0 0
      vertex -2.44537 0.519779 5
      vertex -2.44537 0.519779 0
    endloop
  endfacet
  facet normal -0.994522 0.104529 0
    outer loop
      vertex -2.44537 0.519779 5
      vertex -2.5 0 0
      vertex -2.5 0 5
    endloop
  endfacet
  facet normal 0 1 -0
    outer loop
      vertex 0.261321 2.4863 0
      vertex -0.261321 2.4863 5
      vertex 0.261321 2.4863 5
    endloop
  endfacet
  facet normal 0 1 0
    outer loop
      vertex -0.261321 2.4863 5
      vertex 0.261321 2.4863 0
      vertex -0.261321 2.4863 0
    endloop
  endfacet
  facet normal 0 -1 0
    outer loop
      vertex -0.261321 -2.4863 0
      vertex 0.261321 -2.4863 5
      vertex -0.261321 -2.4863 5
    endloop
  endfacet
  facet normal 0 -1 -0
    outer loop
      vertex 0.261321 -2.4863 5
      vertex -0.261321 -2.4863 0
      vertex 0.261321 -2.4863 0
    endloop
  endfacet
  facet normal 0.587786 0.809017 -0
    outer loop
      vertex 1.67283 1.85786 0
      vertex 1.25 2.16506 5
      vertex 1.67283 1.85786 5
    endloop
  endfacet
  facet normal 0.587786 0.809017 0
    outer loop
      vertex 1.25 2.16506 5
      vertex 1.67283 1.85786 0
      vertex 1.25 2.16506 0
    endloop
  endfacet
  facet normal -0.587785 0.809017 0
    outer loop
      vertex -1.25 2.16506 0
      vertex -1.67283 1.85786 5
      vertex -1.25 2.16506 5
    endloop
  endfacet
  facet normal -0.587785 0.809017 0
    outer loop
      vertex -1.67283 1.85786 5
      vertex -1.25 2.16506 0
      vertex -1.67283 1.85786 0
    endloop
  endfacet
  facet normal -0.207912 0.978148 0
    outer loop
      vertex -0.261321 2.4863 0
      vertex -0.772542 2.37764 5
      vertex -0.261321 2.4863 5
    endloop
  endfacet
  facet normal -0.207912 0.978148 0
    outer loop
      vertex -0.772542 2.37764 5
      vertex -0.261321 2.4863 0
      vertex -0.772542 2.37764 0
    endloop
  endfacet
  facet normal 0.866025 0.5 0
    outer loop
      vertex 2.28386 1.01684 5
      vertex 2.02254 1.46946 0
      vertex 2.02254 1.46946 5
    endloop
  endfacet
  facet normal 0.866025 0.5 0
    outer loop
      vertex 2.02254 1.46946 0
      vertex 2.28386 1.01684 5
      vertex 2.28386 1.01684 0
    endloop
  endfacet
  facet normal 0.951056 0.309018 0
    outer loop
      vertex 2.44537 0.519779 5
      vertex 2.28386 1.01684 0
      vertex 2.28386 1.01684 5
    endloop
  endfacet
  facet normal 0.951056 0.309018 0
    outer loop
      vertex 2.28386 1.01684 0
      vertex 2.44537 0.519779 5
      vertex 2.44537 0.519779 0
    endloop
  endfacet
  facet normal 0.743145 0.669131 0
    outer loop
      vertex 2.02254 1.46946 5
      vertex 1.67283 1.85786 0
      vertex 1.67283 1.85786 5
    endloop
  endfacet
  facet normal 0.743145 0.669131 0
    outer loop
      vertex 1.67283 1.85786 0
      vertex 2.02254 1.46946 5
      vertex 2.02254 1.46946 0
    endloop
  endfacet
  facet normal 0.207912 0.978148 -0
    outer loop
      vertex 0.772542 2.37764 0
      vertex 0.261321 2.4863 5
      vertex 0.772542 2.37764 5
    endloop
  endfacet
  facet normal 0.207912 0.978148 0
    outer loop
      vertex 0.261321 2.4863 5
      vertex 0.772542 2.37764 0
      vertex 0.261321 2.4863 0
    endloop
  endfacet
  facet normal 0.406736 0.913546 -0
    outer loop
      vertex 1.25 2.16506 0
      vertex 0.772542 2.37764 5
      vertex 1.25 2.16506 5
    endloop
  endfacet
  facet normal 0.406736 0.913546 0
    outer loop
      vertex 0.772542 2.37764 5
      vertex 1.25 2.16506 0
      vertex 0.772542 2.37764 0
    endloop
  endfacet
  facet normal -0.866025 0.5 0
    outer loop
      vertex -2.28386 1.01684 0
      vertex -2.02254 1.46946 5
      vertex -2.02254 1.46946 0
    endloop
  endfacet
  facet normal -0.866025 0.5 0
    outer loop
      vertex -2.02254 1.46946 5
      vertex -2.28386 1.01684 0
      vertex -2.28386 1.01684 5
    endloop
  endfacet
  facet normal -0.743145 0.669131 0
    outer loop
      vertex -2.02254 1.46946 0
      vertex -1.67283 1.85786 5
      vertex -1.67283 1.85786 0
    endloop
  endfacet
  facet normal -0.743145 0.669131 0
    outer loop
      vertex -1.67283 1.85786 5
      vertex -2.02254 1.46946 0
      vertex -2.02254 1.46946 5
    endloop
  endfacet
  facet normal -0.951056 0.309018 0
    outer loop
      vertex -2.44537 0.519779 0
      vertex -2.28386 1.01684 5
      vertex -2.28386 1.01684 0
    endloop
  endfacet
  facet normal -0.951056 0.309018 0
    outer loop
      vertex -2.28386 1.01684 5
      vertex -2.44537 0.519779 0
      vertex -2.44537 0.519779 5
    endloop
  endfacet
  facet normal 0 0 1
    outer loop
      vertex 2.44537 0.519779 5
      vertex 1.22268 0.25989 5
      vertex 1.25 0 5
    endloop
  endfacet
  facet normal 0 0 1
    outer loop
      vertex 1.67283 1.85786 5
      vertex 1.14193 0.50842 5
      vertex 1.22268 0.25989 5
    endloop
  endfacet
  facet normal 0 0 1
    outer loop
      vertex 1.67283 1.85786 5
      vertex 1.01127 0.734731 5
      vertex 1.14193 0.50842 5
    endloop
  endfacet
  facet normal 0 0 1
    outer loop
      vertex 1.67283 1.85786 5
      vertex 0.836412 0.92893 5
      vertex 1.01127 0.734731 5
    endloop
  endfacet
  facet normal 0 0 1
    outer loop
      vertex 0.625 1.08253 5
      vertex 1.25 2.16506 5
      vertex 0.772542 2.37764 5
    endloop
  endfacet
  facet normal 0 0 1
    outer loop
      vertex 1.25 2.16506 5
      vertex 0.625 1.08253 5
      vertex 0.836412 0.92893 5
    endloop
  endfacet
  facet normal 0 0 1
    outer loop
      vertex 0.772542 2.37764 5
      vertex 0.386271 1.18882 5
      vertex 0.625 1.08253 5
    endloop
  endfacet
  facet normal 0 0 1
    outer loop
      vertex 0.261321 2.4863 5
      vertex 0.386271 1.18882 5
      vertex 0.772542 2.37764 5
    endloop
  endfacet
  facet normal 0 0 1
    outer loop
      vertex 0.261321 2.4863 5
      vertex 0.13066 1.24315 5
      vertex 0.386271 1.18882 5
    endloop
  endfacet
  facet normal 0 0 1
    outer loop
      vertex 0.261321 2.4863 5
      vertex -0.13066 1.24315 5
      vertex 0.13066 1.24315 5
    endloop
  endfacet
  facet normal -0 0 1
    outer loop
      vertex -0.261321 2.4863 5
      vertex -0.13066 1.24315 5
      vertex 0.261321 2.4863 5
    endloop
  endfacet
  facet normal 0 0 1
    outer loop
      vertex -0.261321 2.4863 5
      vertex -0.386271 1.18882 5
      vertex -0.13066 1.24315 5
    endloop
  endfacet
  facet normal -0 0 1
    outer loop
      vertex -0.772542 2.37764 5
      vertex -0.386271 1.18882 5
      vertex -0.261321 2.4863 5
    endloop
  endfacet
  facet normal 0 0 1
    outer loop
      vertex -0.386271 1.18882 5
      vertex -0.772542 2.37764 5
      vertex -0.624999 1.08253 5
    endloop
  endfacet
  facet normal -0 0 1
    outer loop
      vertex -1.25 2.16506 5
      vertex -0.624999 1.08253 5
      vertex -0.772542 2.37764 5
    endloop
  endfacet
  facet normal 0 0 1
    outer loop
      vertex -0.624999 1.08253 5
      vertex -1.25 2.16506 5
      vertex -0.836412 0.92893 5
    endloop
  endfacet
  facet normal -0 0 1
    outer loop
      vertex -1.67283 1.85786 5
      vertex -0.836412 0.92893 5
      vertex -1.25 2.16506 5
    endloop
  endfacet
  facet normal 0 0 1
    outer loop
      vertex -0.836412 0.92893 5
      vertex -1.67283 1.85786 5
      vertex -1.01127 0.734731 5
    endloop
  endfacet
  facet normal -0 0 1
    outer loop
      vertex -2.02254 1.46946 5
      vertex -1.01127 0.734731 5
      vertex -1.67283 1.85786 5
    endloop
  endfacet
  facet normal 0 0 1
    outer loop
      vertex -1.01127 0.734731 5
      vertex -2.02254 1.46946 5
      vertex -1.14193 0.50842 5
    endloop
  endfacet
  facet normal -0 0 1
    outer loop
      vertex -2.28386 1.01684 5
      vertex -1.14193 0.50842 5
      vertex -2.02254 1.46946 5
    endloop
  endfacet
  facet normal 0 0 1
    outer loop
      vertex -1.14193 0.50842 5
      vertex -2.28386 1.01684 5
      vertex -1.22268 0.25989 5
    endloop
  endfacet
  facet normal 0 0 1
    outer loop
      vertex -1.25 0 5
      vertex -1.67283 -1.85786 5
      vertex -1.25 -2.16506 5
    endloop
  endfacet
  facet normal -0 0 1
    outer loop
      vertex -2.44537 0.519779 5
      vertex -1.22268 0.25989 5
      vertex -2.28386 1.01684 5
    endloop
  endfacet
  facet normal 0 0 1
    outer loop
      vertex -1.25 0 5
      vertex -2.02254 -1.46946 5
      vertex -1.67283 -1.85786 5
    endloop
  endfacet
  facet normal 0 0 1
    outer loop
      vertex -1.22268 0.25989 5
      vertex -2.44537 0.519779 5
      vertex -1.25 0 5
    endloop
  endfacet
  facet normal 0 0 1
    outer loop
      vertex -1.25 0 5
      vertex -2.28386 -1.01684 5
      vertex -2.02254 -1.46946 5
    endloop
  endfacet
  facet normal 0 0 1
    outer loop
      vertex -2.5 0 5
      vertex -1.25 0 5
      vertex -2.44537 0.519779 5
    endloop
  endfacet
  facet normal 0 0 1
    outer loop
      vertex -1.25 0 5
      vertex -2.44537 -0.519779 5
      vertex -2.28386 -1.01684 5
    endloop
  endfacet
  facet normal 0 0 1
    outer loop
      vertex -1.25 0 5
      vertex -2.5 0 5
      vertex -2.44537 -0.519779 5
    endloop
  endfacet
  facet normal 0 0 1
    outer loop
      vertex 1.25 0 5
      vertex 2.5 0 5
      vertex 2.44537 0.519779 5
    endloop
  endfacet
  facet normal 0 0 1
    outer loop
      vertex 1.22268 0.25989 5
      vertex 2.44537 0.519779 5
      vertex 2.28386 1.01684 5
    endloop
  endfacet
  facet normal 0 0 1
    outer loop
      vertex 2.5 0 5
      vertex 1.25 0 5
      vertex 2.44537 -0.519779 5
    endloop
  endfacet
  facet normal 0 0 1
    outer loop
      vertex 1.22268 0.25989 5
      vertex 2.28386 1.01684 5
      vertex 2.02254 1.46946 5
    endloop
  endfacet
  facet normal -0 0 1
    outer loop
      vertex 1.22268 -0.25989 5
      vertex 2.44537 -0.519779 5
      vertex 1.25 0 5
    endloop
  endfacet
  facet normal 0 0 1
    outer loop
      vertex 1.22268 0.25989 5
      vertex 2.02254 1.46946 5
      vertex 1.67283 1.85786 5
    endloop
  endfacet
  facet normal 0 0 1
    outer loop
      vertex 2.44537 -0.519779 5
      vertex 1.22268 -0.25989 5
      vertex 2.28386 -1.01684 5
    endloop
  endfacet
  facet normal 0 0 1
    outer loop
      vertex 0.836412 0.92893 5
      vertex 1.67283 1.85786 5
      vertex 1.25 2.16506 5
    endloop
  endfacet
  facet normal -0 0 1
    outer loop
      vertex 1.14193 -0.50842 5
      vertex 2.28386 -1.01684 5
      vertex 1.22268 -0.25989 5
    endloop
  endfacet
  facet normal 0 0 1
    outer loop
      vertex 2.28386 -1.01684 5
      vertex 1.14193 -0.50842 5
      vertex 2.02254 -1.46946 5
    endloop
  endfacet
  facet normal -0 0 1
    outer loop
      vertex 1.01127 -0.734731 5
      vertex 2.02254 -1.46946 5
      vertex 1.14193 -0.50842 5
    endloop
  endfacet
  facet normal 0 0 1
    outer loop
      vertex 2.02254 -1.46946 5
      vertex 1.01127 -0.734731 5
      vertex 1.67283 -1.85786 5
    endloop
  endfacet
  facet normal -0 0 1
    outer loop
      vertex 0.836412 -0.92893 5
      vertex 1.67283 -1.85786 5
      vertex 1.01127 -0.734731 5
    endloop
  endfacet
  facet normal 0 0 1
    outer loop
      vertex 1.67283 -1.85786 5
      vertex 0.836412 -0.92893 5
      vertex 1.25 -2.16506 5
    endloop
  endfacet
  facet normal -0 0 1
    outer loop
      vertex 0.625 -1.08253 5
      vertex 1.25 -2.16506 5
      vertex 0.836412 -0.92893 5
    endloop
  endfacet
  facet normal 0 0 1
    outer loop
      vertex 1.25 -2.16506 5
      vertex 0.625 -1.08253 5
      vertex 0.772542 -2.37764 5
    endloop
  endfacet
  facet normal -0 0 1
    outer loop
      vertex 0.386271 -1.18882 5
      vertex 0.772542 -2.37764 5
      vertex 0.625 -1.08253 5
    endloop
  endfacet
  facet normal 0 0 1
    outer loop
      vertex 0.386271 -1.18882 5
      vertex 0.261321 -2.4863 5
      vertex 0.772542 -2.37764 5
    endloop
  endfacet
  facet normal -0 0 1
    outer loop
      vertex 0.13066 -1.24315 5
      vertex 0.261321 -2.4863 5
      vertex 0.386271 -1.18882 5
    endloop
  endfacet
  facet normal -0 0 1
    outer loop
      vertex -0.13066 -1.24315 5
      vertex 0.261321 -2.4863 5
      vertex 0.13066 -1.24315 5
    endloop
  endfacet
  facet normal 0 0 1
    outer loop
      vertex -0.13066 -1.24315 5
      vertex -0.261321 -2.4863 5
      vertex 0.261321 -2.4863 5
    endloop
  endfacet
  facet normal 0 0 1
    outer loop
      vertex -0.386271 -1.18882 5
      vertex -0.261321 -2.4863 5
      vertex -0.13066 -1.24315 5
    endloop
  endfacet
  facet normal 0 0 1
    outer loop
      vertex -0.772542 -2.37764 5
      vertex -0.386271 -1.18882 5
      vertex -0.625 -1.08253 5
    endloop
  endfacet
  facet normal 0 0 1
    outer loop
      vertex -0.386271 -1.18882 5
      vertex -0.772542 -2.37764 5
      vertex -0.261321 -2.4863 5
    endloop
  endfacet
  facet normal 0 0 1
    outer loop
      vertex -1.25 -2.16506 5
      vertex -0.625 -1.08253 5
      vertex -0.836412 -0.92893 5
    endloop
  endfacet
  facet normal 0 0 1
    outer loop
      vertex -1.25 -2.16506 5
      vertex -0.836412 -0.92893 5
      vertex -1.01127 -0.734731 5
    endloop
  endfacet
  facet normal 0 0 1
    outer loop
      vertex -1.25 -2.16506 5
      vertex -1.01127 -0.734731 5
      vertex -1.14193 -0.50842 5
    endloop
  endfacet
  facet normal 0 0 1
    outer loop
      vertex -1.25 -2.16506 5
      vertex -1.14193 -0.50842 5
      vertex -1.22268 -0.25989 5
    endloop
  endfacet
  facet normal 0 0 1
    outer loop
      vertex -0.625 -1.08253 5
      vertex -1.25 -2.16506 5
      vertex -0.772542 -2.37764 5
    endloop
  endfacet
  facet normal 0 0 1
    outer loop
      vertex -1.25 -2.16506 5
      vertex -1.22268 -0.25989 5
      vertex -1.25 0 5
    endloop
  endfacet
  facet normal -0.406737 0.913545 0
    outer loop
      vertex -0.772542 2.37764 0
      vertex -1.25 2.16506 5
      vertex -0.772542 2.37764 5
    endloop
  endfacet
  facet normal -0.406737 0.913545 0
    outer loop
      vertex -1.25 2.16506 5
      vertex -0.772542 2.37764 0
      vertex -1.25 2.16506 0
    endloop
  endfacet
  facet normal 0.994522 -0.104529 0
    outer loop
      vertex 2.44537 -0.519779 5
      vertex 2.5 0 0
      vertex 2.5 0 5
    endloop
  endfacet
  facet normal 0.994522 -0.104529 0
    outer loop
      vertex 2.5 0 0
      vertex 2.44537 -0.519779 5
      vertex 2.44537 -0.519779 0
    endloop
  endfacet
  facet normal 0 0 -1
    outer loop
      vertex 2.44537 -0.519779 0
      vertex 2.44537 0.519779 0
      vertex 2.5 0 0
    endloop
  endfacet
  facet normal 0 0 -1
    outer loop
      vertex 2.28386 -1.01684 0
      vertex 2.44537 0.519779 0
      vertex 2.44537 -0.519779 0
    endloop
  endfacet
  facet normal 0 0 -1
    outer loop
      vertex 2.28386 -1.01684 0
      vertex 2.28386 1.01684 0
      vertex 2.44537 0.519779 0
    endloop
  endfacet
  facet normal 0 0 -1
    outer loop
      vertex 2.02254 -1.46946 0
      vertex 2.28386 1.01684 0
      vertex 2.28386 -1.01684 0
    endloop
  endfacet
  facet normal 0 0 -1
    outer loop
      vertex 2.02254 -1.46946 0
      vertex 2.02254 1.46946 0
      vertex 2.28386 1.01684 0
    endloop
  endfacet
  facet normal 0 0 -1
    outer loop
      vertex 1.67283 -1.85786 0
      vertex 2.02254 1.46946 0
      vertex 2.02254 -1.46946 0
    endloop
  endfacet
  facet normal 0 0 -1
    outer loop
      vertex 1.67283 -1.85786 0
      vertex 1.67283 1.85786 0
      vertex 2.02254 1.46946 0
    endloop
  endfacet
  facet normal 0 0 -1
    outer loop
      vertex 1.25 -2.16506 0
      vertex 1.67283 1.85786 0
      vertex 1.67283 -1.85786 0
    endloop
  endfacet
  facet normal 0 0 -1
    outer loop
      vertex 1.25 -2.16506 0
      vertex 1.25 2.16506 0
      vertex 1.67283 1.85786 0
    endloop
  endfacet
  facet normal 0 0 -1
    outer loop
      vertex 0.772542 -2.37764 0
      vertex 1.25 2.16506 0
      vertex 1.25 -2.16506 0
    endloop
  endfacet
  facet normal 0 0 -1
    outer loop
      vertex 0.772542 -2.37764 0
      vertex 0.772542 2.37764 0
      vertex 1.25 2.16506 0
    endloop
  endfacet
  facet normal 0 0 -1
    outer loop
      vertex 0.261321 -2.4863 0
      vertex 0.772542 2.37764 0
      vertex 0.772542 -2.37764 0
    endloop
  endfacet
  facet normal 0 0 -1
    outer loop
      vertex 0.261321 -2.4863 0
      vertex 0.261321 2.4863 0
      vertex 0.772542 2.37764 0
    endloop
  endfacet
  facet normal 0 0 -1
    outer loop
      vertex -0.261321 -2.4863 0
      vertex 0.261321 2.4863 0
      vertex 0.261321 -2.4863 0
    endloop
  endfacet
  facet normal 0 0 -1
    outer loop
      vertex -0.261321 -2.4863 0
      vertex -0.261321 2.4863 0
      vertex 0.261321 2.4863 0
    endloop
  endfacet
  facet normal 0 0 -1
    outer loop
      vertex -0.772542 -2.37764 0
      vertex -0.261321 2.4863 0
      vertex -0.261321 -2.4863 0
    endloop
  endfacet
  facet normal 0 0 -1
    outer loop
      vertex -0.772542 -2.37764 0
      vertex -0.772542 2.37764 0
      vertex -0.261321 2.4863 0
    endloop
  endfacet
  facet normal 0 0 -1
    outer loop
      vertex -0.772542 -2.37764 0
      vertex -1.25 2.16506 0
      vertex -0.772542 2.37764 0
    endloop
  endfacet
  facet normal 0 0 -1
    outer loop
      vertex -1.25 -2.16506 0
      vertex -1.25 2.16506 0
      vertex -0.772542 -2.37764 0
    endloop
  endfacet
  facet normal 0 0 -1
    outer loop
      vertex -1.67283 -1.85786 0
      vertex -1.25 2.16506 0
      vertex -1.25 -2.16506 0
    endloop
  endfacet
  facet normal 0 0 -1
    outer loop
      vertex -1.67283 -1.85786 0
      vertex -1.67283 1.85786 0
      vertex -1.25 2.16506 0
    endloop
  endfacet
  facet normal 0 0 -1
    outer loop
      vertex -2.02254 -1.46946 0
      vertex -1.67283 1.85786 0
      vertex -1.67283 -1.85786 0
    endloop
  endfacet
  facet normal 0 0 -1
    outer loop
      vertex -2.02254 -1.46946 0
      vertex -2.02254 1.46946 0
      vertex -1.67283 1.85786 0
    endloop
  endfacet
  facet normal 0 0 -1
    outer loop
      vertex -2.28386 -1.01684 0
      vertex -2.02254 1.46946 0
      vertex -2.02254 -1.46946 0
    endloop
  endfacet
  facet normal 0 0 -1
    outer loop
      vertex -2.28386 -1.01684 0
      vertex -2.28386 1.01684 0
      vertex -2.02254 1.46946 0
    endloop
  endfacet
  facet normal 0 0 -1
    outer loop
      vertex -2.44537 -0.519779 0
      vertex -2.28386 1.01684 0
      vertex -2.28386 -1.01684 0
    endloop
  endfacet
  facet normal 0 0 -1
    outer loop
      vertex -2.44537 -0.519779 0
      vertex -2.44537 0.519779 0
      vertex -2.28386 1.01684 0
    endloop
  endfacet
  facet normal 0 -0 -1
    outer loop
      vertex -2.44537 0.519779 0
      vertex -2.44537 -0.519779 0
      vertex -2.5 0 0
    endloop
  endfacet
  facet normal 0.866025 -0.5 0
    outer loop
      vertex 2.02254 -1.46946 5
      vertex 2.28386 -1.01684 0
      vertex 2.28386 -1.01684 5
    endloop
  endfacet
  facet normal 0.866025 -0.5 0
    outer loop
      vertex 2.28386 -1.01684 0
      vertex 2.02254 -1.46946 5
      vertex 2.02254 -1.46946 0
    endloop
  endfacet
  facet normal -0.866025 -0.5 0
    outer loop
      vertex -2.02254 -1.46946 0
      vertex -2.28386 -1.01684 5
      vertex -2.28386 -1.01684 0
    endloop
  endfacet
  facet normal -0.866025 -0.5 0
    outer loop
      vertex -2.28386 -1.01684 5
      vertex -2.02254 -1.46946 0
      vertex -2.02254 -1.46946 5
    endloop
  endfacet
  facet normal -0.743145 -0.669131 0
    outer loop
      vertex -1.67283 -1.85786 0
      vertex -2.02254 -1.46946 5
      vertex -2.02254 -1.46946 0
    endloop
  endfacet
  facet normal -0.743145 -0.669131 0
    outer loop
      vertex -2.02254 -1.46946 5
      vertex -1.67283 -1.85786 0
      vertex -1.67283 -1.85786 5
    endloop
  endfacet
  facet normal 0.587786 -0.809017 0
    outer loop
      vertex 1.25 -2.16506 0
      vertex 1.67283 -1.85786 5
      vertex 1.25 -2.16506 5
    endloop
  endfacet
  facet normal 0.587786 -0.809017 0
    outer loop
      vertex 1.67283 -1.85786 5
      vertex 1.25 -2.16506 0
      vertex 1.67283 -1.85786 0
    endloop
  endfacet
  facet normal 0.951056 -0.309018 0
    outer loop
      vertex 2.28386 -1.01684 5
      vertex 2.44537 -0.519779 0
      vertex 2.44537 -0.519779 5
    endloop
  endfacet
  facet normal 0.951056 -0.309018 0
    outer loop
      vertex 2.44537 -0.519779 0
      vertex 2.28386 -1.01684 5
      vertex 2.28386 -1.01684 0
    endloop
  endfacet
  facet normal -0.207912 -0.978148 0
    outer loop
      vertex -0.772542 -2.37764 0
      vertex -0.261321 -2.4863 5
      vertex -0.772542 -2.37764 5
    endloop
  endfacet
  facet normal -0.207912 -0.978148 -0
    outer loop
      vertex -0.261321 -2.4863 5
      vertex -0.772542 -2.37764 0
      vertex -0.261321 -2.4863 0
    endloop
  endfacet
  facet normal -0.951056 -0.309018 0
    outer loop
      vertex -2.28386 -1.01684 0
      vertex -2.44537 -0.519779 5
      vertex -2.44537 -0.519779 0
    endloop
  endfacet
  facet normal -0.951056 -0.309018 0
    outer loop
      vertex -2.44537 -0.519779 5
      vertex -2.28386 -1.01684 0
      vertex -2.28386 -1.01684 5
    endloop
  endfacet
  facet normal -0.994522 -0.104529 0
    outer loop
      vertex -2.44537 -0.519779 0
      vertex -2.5 0 5
      vertex -2.5 0 0
    endloop
  endfacet
  facet normal -0.994522 -0.104529 0
    outer loop
      vertex -2.5 0 5
      vertex -2.44537 -0.519779 0
      vertex -2.44537 -0.519779 5
    endloop
  endfacet
  facet normal 0.406736 -0.913546 0
    outer loop
      vertex 0.772542 -2.37764 0
      vertex 1.25 -2.16506 5
      vertex 0.772542 -2.37764 5
    endloop
  endfacet
  facet normal 0.406736 -0.913546 0
    outer loop
      vertex 1.25 -2.16506 5
      vertex 0.772542 -2.37764 0
      vertex 1.25 -2.16506 0
    endloop
  endfacet
  facet normal 0.207912 -0.978148 0
    outer loop
      vertex 0.261321 -2.4863 0
      vertex 0.772542 -2.37764 5
      vertex 0.261321 -2.4863 5
    endloop
  endfacet
  facet normal 0.207912 -0.978148 0
    outer loop
      vertex 0.772542 -2.37764 5
      vertex 0.261321 -2.4863 0
      vertex 0.772542 -2.37764 0
    endloop
  endfacet
  facet normal 0.743145 -0.669131 0
    outer loop
      vertex 1.67283 -1.85786 5
      vertex 2.02254 -1.46946 0
      vertex 2.02254 -1.46946 5
    endloop
  endfacet
  facet normal 0.743145 -0.669131 0
    outer loop
      vertex 2.02254 -1.46946 0
      vertex 1.67283 -1.85786 5
      vertex 1.67283 -1.85786 0
    endloop
  endfacet
  facet normal -0.406736 -0.913546 0
    outer loop
      vertex -1.25 -2.16506 0
      vertex -0.772542 -2.37764 5
      vertex -1.25 -2.16506 5
    endloop
  endfacet
  facet normal -0.406736 -0.913546 -0
    outer loop
      vertex -0.772542 -2.37764 5
      vertex -1.25 -2.16506 0
      vertex -0.772542 -2.37764 0
    endloop
  endfacet
  facet normal -0.587786 -0.809017 0
    outer loop
      vertex -1.67283 -1.85786 0
      vertex -1.25 -2.16506 5
      vertex -1.67283 -1.85786 5
    endloop
  endfacet
  facet normal -0.587786 -0.809017 -0
    outer loop
      vertex -1.25 -2.16506 5
      vertex -1.67283 -1.85786 0
      vertex -1.25 -2.16506 0
    endloop
  endfacet
  facet normal 0.994522 0.104531 0
    outer loop
      vertex 1.25 0 6.5
      vertex 1.22268 0.25989 5
      vertex 1.22268 0.25989 6.5
    endloop
  endfacet
  facet normal 0.994522 0.104531 0
    outer loop
      vertex 1.22268 0.25989 5
      vertex 1.25 0 6.5
      vertex 1.25 0 5
    endloop
  endfacet
  facet normal -0.994522 0.104531 0
    outer loop
      vertex -1.25 0 5
      vertex -1.22268 0.25989 6.5
      vertex -1.22268 0.25989 5
    endloop
  endfacet
  facet normal -0.994522 0.104531 0
    outer loop
      vertex -1.22268 0.25989 6.5
      vertex -1.25 0 5
      vertex -1.25 0 6.5
    endloop
  endfacet
  facet normal 0 1 -0
    outer loop
      vertex 0.13066 1.24315 5
      vertex -0.13066 1.24315 5.01
      vertex 0.13066 1.24315 5.01
    endloop
  endfacet
  facet normal 0 1 0
    outer loop
      vertex -0.13066 1.24315 5.01
      vertex 0.13066 1.24315 5
      vertex -0.13066 1.24315 5
    endloop
  endfacet
  facet normal 0 -1 0
    outer loop
      vertex -0.13066 -1.24315 5
      vertex 0.13066 -1.24315 5.01
      vertex -0.13066 -1.24315 5.01
    endloop
  endfacet
  facet normal 0 -1 -0
    outer loop
      vertex 0.13066 -1.24315 5.01
      vertex -0.13066 -1.24315 5
      vertex 0.13066 -1.24315 5
    endloop
  endfacet
  facet normal 0.587787 0.809016 -0
    outer loop
      vertex 0.836412 0.92893 5
      vertex 0.625 1.08253 6.5
      vertex 0.836412 0.92893 6.5
    endloop
  endfacet
  facet normal 0.587787 0.809016 0
    outer loop
      vertex 0.625 1.08253 6.5
      vertex 0.836412 0.92893 5
      vertex 0.625 1.08253 5
    endloop
  endfacet
  facet normal -0.587785 0.809017 0
    outer loop
      vertex -0.624999 1.08253 5
      vertex -0.836412 0.92893 6.5
      vertex -0.624999 1.08253 6.5
    endloop
  endfacet
  facet normal -0.587785 0.809017 0
    outer loop
      vertex -0.836412 0.92893 6.5
      vertex -0.624999 1.08253 5
      vertex -0.836412 0.92893 5
    endloop
  endfacet
  facet normal -0.207912 0.978148 0
    outer loop
      vertex -0.13066 1.24315 5.01
      vertex -0.13066 1.24315 5
      vertex -0.25 1.21779 5.01
    endloop
  endfacet
  facet normal -0.207912 0.978148 0
    outer loop
      vertex -0.25 1.21779 5.01
      vertex -0.386271 1.18882 6.5
      vertex -0.25 1.21779 6.5
    endloop
  endfacet
  facet normal -0.207912 0.978148 0
    outer loop
      vertex -0.25 1.21779 5.01
      vertex -0.386271 1.18882 5
      vertex -0.386271 1.18882 6.5
    endloop
  endfacet
  facet normal -0.207912 0.978148 1.09266e-06
    outer loop
      vertex -0.386271 1.18882 5
      vertex -0.25 1.21779 5.01
      vertex -0.13066 1.24315 5
    endloop
  endfacet
  facet normal 0.866025 0.500001 0
    outer loop
      vertex 1.14193 0.50842 6.5
      vertex 1.01127 0.734731 5
      vertex 1.01127 0.734731 6.5
    endloop
  endfacet
  facet normal 0.866025 0.500001 0
    outer loop
      vertex 1.01127 0.734731 5
      vertex 1.14193 0.50842 6.5
      vertex 1.14193 0.50842 5
    endloop
  endfacet
  facet normal 0.951057 0.309017 0
    outer loop
      vertex 1.22268 0.25989 6.5
      vertex 1.14193 0.50842 5
      vertex 1.14193 0.50842 6.5
    endloop
  endfacet
  facet normal 0.951057 0.309017 0
    outer loop
      vertex 1.14193 0.50842 5
      vertex 1.22268 0.25989 6.5
      vertex 1.22268 0.25989 5
    endloop
  endfacet
  facet normal 0.743145 0.669131 0
    outer loop
      vertex 1.01127 0.734731 6.5
      vertex 0.836412 0.92893 5
      vertex 0.836412 0.92893 6.5
    endloop
  endfacet
  facet normal 0.743145 0.669131 0
    outer loop
      vertex 0.836412 0.92893 5
      vertex 1.01127 0.734731 6.5
      vertex 1.01127 0.734731 5
    endloop
  endfacet
  facet normal 0.207912 0.978148 0
    outer loop
      vertex 0.386271 1.18882 6.5
      vertex 0.25 1.21779 5.01
      vertex 0.25 1.21779 6.5
    endloop
  endfacet
  facet normal 0.207912 0.978148 -0
    outer loop
      vertex 0.386271 1.18882 5
      vertex 0.25 1.21779 5.01
      vertex 0.386271 1.18882 6.5
    endloop
  endfacet
  facet normal 0.207912 0.978148 1.09266e-06
    outer loop
      vertex 0.13066 1.24315 5
      vertex 0.25 1.21779 5.01
      vertex 0.386271 1.18882 5
    endloop
  endfacet
  facet normal 0.207912 0.978148 0
    outer loop
      vertex 0.25 1.21779 5.01
      vertex 0.13066 1.24315 5
      vertex 0.13066 1.24315 5.01
    endloop
  endfacet
  facet normal 0.406736 0.913546 -0
    outer loop
      vertex 0.625 1.08253 5
      vertex 0.386271 1.18882 6.5
      vertex 0.625 1.08253 6.5
    endloop
  endfacet
  facet normal 0.406736 0.913546 0
    outer loop
      vertex 0.386271 1.18882 6.5
      vertex 0.625 1.08253 5
      vertex 0.386271 1.18882 5
    endloop
  endfacet
  facet normal -0.866025 0.500001 0
    outer loop
      vertex -1.14193 0.50842 5
      vertex -1.01127 0.734731 6.5
      vertex -1.01127 0.734731 5
    endloop
  endfacet
  facet normal -0.866025 0.500001 0
    outer loop
      vertex -1.01127 0.734731 6.5
      vertex -1.14193 0.50842 5
      vertex -1.14193 0.50842 6.5
    endloop
  endfacet
  facet normal -0.743145 0.669131 0
    outer loop
      vertex -1.01127 0.734731 5
      vertex -0.836412 0.92893 6.5
      vertex -0.836412 0.92893 5
    endloop
  endfacet
  facet normal -0.743145 0.669131 0
    outer loop
      vertex -0.836412 0.92893 6.5
      vertex -1.01127 0.734731 5
      vertex -1.01127 0.734731 6.5
    endloop
  endfacet
  facet normal -0.951057 0.309017 0
    outer loop
      vertex -1.22268 0.25989 5
      vertex -1.14193 0.50842 6.5
      vertex -1.14193 0.50842 5
    endloop
  endfacet
  facet normal -0.951057 0.309017 0
    outer loop
      vertex -1.14193 0.50842 6.5
      vertex -1.22268 0.25989 5
      vertex -1.22268 0.25989 6.5
    endloop
  endfacet
  facet normal 0 0 1
    outer loop
      vertex 1.3205 0.280681 8
      vertex 1.3205 -0.280681 8
      vertex 1.35 0 8
    endloop
  endfacet
  facet normal 0 0 1
    outer loop
      vertex 1.23329 0.549094 8
      vertex 1.3205 -0.280681 8
      vertex 1.3205 0.280681 8
    endloop
  endfacet
  facet normal 0 0 1
    outer loop
      vertex 1.23329 0.549094 8
      vertex 1.23329 -0.549094 8
      vertex 1.3205 -0.280681 8
    endloop
  endfacet
  facet normal 0 0 1
    outer loop
      vertex 1.09217 0.793509 8
      vertex 1.23329 -0.549094 8
      vertex 1.23329 0.549094 8
    endloop
  endfacet
  facet normal 0 0 1
    outer loop
      vertex 1.09217 0.793509 8
      vertex 1.09217 -0.793509 8
      vertex 1.23329 -0.549094 8
    endloop
  endfacet
  facet normal 0 0 1
    outer loop
      vertex 0.903326 1.00325 8
      vertex 1.09217 -0.793509 8
      vertex 1.09217 0.793509 8
    endloop
  endfacet
  facet normal 0 0 1
    outer loop
      vertex 0.903326 1.00325 8
      vertex 0.903326 -1.00325 8
      vertex 1.09217 -0.793509 8
    endloop
  endfacet
  facet normal 0 0 1
    outer loop
      vertex 0.25 1.31946 8
      vertex 0.903326 1.00325 8
      vertex 0.674999 1.16913 8
    endloop
  endfacet
  facet normal 0 0 1
    outer loop
      vertex 0.903326 1.00325 8
      vertex 0.25 1.31946 8
      vertex 0.903326 -1.00325 8
    endloop
  endfacet
  facet normal 0 0 1
    outer loop
      vertex 0.25 1.31946 8
      vertex 0.674999 1.16913 8
      vertex 0.417172 1.28393 8
    endloop
  endfacet
  facet normal 0 0 1
    outer loop
      vertex 0.25 -1.31946 8
      vertex 0.903326 -1.00325 8
      vertex 0.25 1.31946 8
    endloop
  endfacet
  facet normal 0 0 1
    outer loop
      vertex 0.903326 -1.00325 8
      vertex 0.25 -1.31946 8
      vertex 0.674999 -1.16913 8
    endloop
  endfacet
  facet normal 0 0 1
    outer loop
      vertex 0.674999 -1.16913 8
      vertex 0.25 -1.31946 8
      vertex 0.417172 -1.28393 8
    endloop
  endfacet
  facet normal 0 0 1
    outer loop
      vertex -0.674999 1.16913 8
      vertex -0.25 1.31946 8
      vertex -0.417172 1.28393 8
    endloop
  endfacet
  facet normal 0 0 1
    outer loop
      vertex -0.903326 1.00325 8
      vertex -0.25 1.31946 8
      vertex -0.674999 1.16913 8
    endloop
  endfacet
  facet normal 0 0 1
    outer loop
      vertex -0.25 1.31946 8
      vertex -0.903326 1.00325 8
      vertex -0.25 -1.31946 8
    endloop
  endfacet
  facet normal 0 0 1
    outer loop
      vertex -0.25 -1.31946 8
      vertex -0.674999 -1.16913 8
      vertex -0.417172 -1.28393 8
    endloop
  endfacet
  facet normal -0 0 1
    outer loop
      vertex -0.903326 -1.00325 8
      vertex -0.25 -1.31946 8
      vertex -0.903326 1.00325 8
    endloop
  endfacet
  facet normal 0 0 1
    outer loop
      vertex -0.25 -1.31946 8
      vertex -0.903326 -1.00325 8
      vertex -0.674999 -1.16913 8
    endloop
  endfacet
  facet normal -0 0 1
    outer loop
      vertex -1.09217 0.793509 8
      vertex -0.903326 -1.00325 8
      vertex -0.903326 1.00325 8
    endloop
  endfacet
  facet normal 0 0 1
    outer loop
      vertex -1.09217 0.793509 8
      vertex -1.09217 -0.793509 8
      vertex -0.903326 -1.00325 8
    endloop
  endfacet
  facet normal -0 0 1
    outer loop
      vertex -1.23329 0.549094 8
      vertex -1.09217 -0.793509 8
      vertex -1.09217 0.793509 8
    endloop
  endfacet
  facet normal 0 0 1
    outer loop
      vertex -1.23329 0.549094 8
      vertex -1.23329 -0.549094 8
      vertex -1.09217 -0.793509 8
    endloop
  endfacet
  facet normal -0 0 1
    outer loop
      vertex -1.3205 0.280681 8
      vertex -1.23329 -0.549094 8
      vertex -1.23329 0.549094 8
    endloop
  endfacet
  facet normal 0 0 1
    outer loop
      vertex -1.3205 0.280681 8
      vertex -1.3205 -0.280681 8
      vertex -1.23329 -0.549094 8
    endloop
  endfacet
  facet normal 0 -0 1
    outer loop
      vertex -1.3205 -0.280681 8
      vertex -1.3205 0.280681 8
      vertex -1.35 0 8
    endloop
  endfacet
  facet normal -0.406737 0.913545 0
    outer loop
      vertex -0.386271 1.18882 5
      vertex -0.624999 1.08253 6.5
      vertex -0.386271 1.18882 6.5
    endloop
  endfacet
  facet normal -0.406737 0.913545 0
    outer loop
      vertex -0.624999 1.08253 6.5
      vertex -0.386271 1.18882 5
      vertex -0.624999 1.08253 5
    endloop
  endfacet
  facet normal 0.994522 -0.104531 0
    outer loop
      vertex 1.22268 -0.25989 6.5
      vertex 1.25 0 5
      vertex 1.25 0 6.5
    endloop
  endfacet
  facet normal 0.994522 -0.104531 0
    outer loop
      vertex 1.25 0 5
      vertex 1.22268 -0.25989 6.5
      vertex 1.22268 -0.25989 5
    endloop
  endfacet
  facet normal 0.743145 -0.669131 0
    outer loop
      vertex 0.836412 -0.92893 6.5
      vertex 1.01127 -0.734731 5
      vertex 1.01127 -0.734731 6.5
    endloop
  endfacet
  facet normal 0.743145 -0.669131 0
    outer loop
      vertex 1.01127 -0.734731 5
      vertex 0.836412 -0.92893 6.5
      vertex 0.836412 -0.92893 5
    endloop
  endfacet
  facet normal 0.951057 -0.309017 0
    outer loop
      vertex 1.14193 -0.50842 6.5
      vertex 1.22268 -0.25989 5
      vertex 1.22268 -0.25989 6.5
    endloop
  endfacet
  facet normal 0.951057 -0.309017 0
    outer loop
      vertex 1.22268 -0.25989 5
      vertex 1.14193 -0.50842 6.5
      vertex 1.14193 -0.50842 5
    endloop
  endfacet
  facet normal 0.866025 -0.500001 0
    outer loop
      vertex 1.01127 -0.734731 6.5
      vertex 1.14193 -0.50842 5
      vertex 1.14193 -0.50842 6.5
    endloop
  endfacet
  facet normal 0.866025 -0.500001 0
    outer loop
      vertex 1.14193 -0.50842 5
      vertex 1.01127 -0.734731 6.5
      vertex 1.01127 -0.734731 5
    endloop
  endfacet
  facet normal -0.587787 -0.809016 0
    outer loop
      vertex -0.836412 -0.92893 5
      vertex -0.625 -1.08253 6.5
      vertex -0.836412 -0.92893 6.5
    endloop
  endfacet
  facet normal -0.587787 -0.809016 -0
    outer loop
      vertex -0.625 -1.08253 6.5
      vertex -0.836412 -0.92893 5
      vertex -0.625 -1.08253 5
    endloop
  endfacet
  facet normal -0.866025 -0.500001 0
    outer loop
      vertex -1.01127 -0.734731 5
      vertex -1.14193 -0.50842 6.5
      vertex -1.14193 -0.50842 5
    endloop
  endfacet
  facet normal -0.866025 -0.500001 0
    outer loop
      vertex -1.14193 -0.50842 6.5
      vertex -1.01127 -0.734731 5
      vertex -1.01127 -0.734731 6.5
    endloop
  endfacet
  facet normal 0.587787 -0.809016 0
    outer loop
      vertex 0.625 -1.08253 5
      vertex 0.836412 -0.92893 6.5
      vertex 0.625 -1.08253 6.5
    endloop
  endfacet
  facet normal 0.587787 -0.809016 0
    outer loop
      vertex 0.836412 -0.92893 6.5
      vertex 0.625 -1.08253 5
      vertex 0.836412 -0.92893 5
    endloop
  endfacet
  facet normal -0.207912 -0.978148 0
    outer loop
      vertex -0.386271 -1.18882 6.5
      vertex -0.25 -1.21779 5.01
      vertex -0.25 -1.21779 6.5
    endloop
  endfacet
  facet normal -0.207912 -0.978148 0
    outer loop
      vertex -0.386271 -1.18882 5
      vertex -0.25 -1.21779 5.01
      vertex -0.386271 -1.18882 6.5
    endloop
  endfacet
  facet normal -0.207912 -0.978148 1.09266e-06
    outer loop
      vertex -0.13066 -1.24315 5
      vertex -0.25 -1.21779 5.01
      vertex -0.386271 -1.18882 5
    endloop
  endfacet
  facet normal -0.207912 -0.978148 0
    outer loop
      vertex -0.25 -1.21779 5.01
      vertex -0.13066 -1.24315 5
      vertex -0.13066 -1.24315 5.01
    endloop
  endfacet
  facet normal -0.406736 -0.913546 0
    outer loop
      vertex -0.625 -1.08253 5
      vertex -0.386271 -1.18882 6.5
      vertex -0.625 -1.08253 6.5
    endloop
  endfacet
  facet normal -0.406736 -0.913546 -0
    outer loop
      vertex -0.386271 -1.18882 6.5
      vertex -0.625 -1.08253 5
      vertex -0.386271 -1.18882 5
    endloop
  endfacet
  facet normal -0.743145 -0.669131 0
    outer loop
      vertex -0.836412 -0.92893 5
      vertex -1.01127 -0.734731 6.5
      vertex -1.01127 -0.734731 5
    endloop
  endfacet
  facet normal -0.743145 -0.669131 0
    outer loop
      vertex -1.01127 -0.734731 6.5
      vertex -0.836412 -0.92893 5
      vertex -0.836412 -0.92893 6.5
    endloop
  endfacet
  facet normal -0.951057 -0.309017 0
    outer loop
      vertex -1.14193 -0.50842 5
      vertex -1.22268 -0.25989 6.5
      vertex -1.22268 -0.25989 5
    endloop
  endfacet
  facet normal -0.951057 -0.309017 0
    outer loop
      vertex -1.22268 -0.25989 6.5
      vertex -1.14193 -0.50842 5
      vertex -1.14193 -0.50842 6.5
    endloop
  endfacet
  facet normal -0.994522 -0.104531 0
    outer loop
      vertex -1.22268 -0.25989 5
      vertex -1.25 0 6.5
      vertex -1.25 0 5
    endloop
  endfacet
  facet normal -0.994522 -0.104531 0
    outer loop
      vertex -1.25 0 6.5
      vertex -1.22268 -0.25989 5
      vertex -1.22268 -0.25989 6.5
    endloop
  endfacet
  facet normal 0.406736 -0.913546 0
    outer loop
      vertex 0.386271 -1.18882 5
      vertex 0.625 -1.08253 6.5
      vertex 0.386271 -1.18882 6.5
    endloop
  endfacet
  facet normal 0.406736 -0.913546 0
    outer loop
      vertex 0.625 -1.08253 6.5
      vertex 0.386271 -1.18882 5
      vertex 0.625 -1.08253 5
    endloop
  endfacet
  facet normal 0.207912 -0.978148 0
    outer loop
      vertex 0.13066 -1.24315 5.01
      vertex 0.13066 -1.24315 5
      vertex 0.25 -1.21779 5.01
    endloop
  endfacet
  facet normal 0.207912 -0.978148 0
    outer loop
      vertex 0.25 -1.21779 5.01
      vertex 0.386271 -1.18882 6.5
      vertex 0.25 -1.21779 6.5
    endloop
  endfacet
  facet normal 0.207912 -0.978148 0
    outer loop
      vertex 0.25 -1.21779 5.01
      vertex 0.386271 -1.18882 5
      vertex 0.386271 -1.18882 6.5
    endloop
  endfacet
  facet normal 0.207912 -0.978148 1.09266e-06
    outer loop
      vertex 0.386271 -1.18882 5
      vertex 0.25 -1.21779 5.01
      vertex 0.13066 -1.24315 5
    endloop
  endfacet
  facet normal 0.994522 0.104529 0
    outer loop
      vertex 1.35 0 8
      vertex 1.3205 0.280681 6.5
      vertex 1.3205 0.280681 8
    endloop
  endfacet
  facet normal 0.994522 0.104529 0
    outer loop
      vertex 1.3205 0.280681 6.5
      vertex 1.35 0 8
      vertex 1.35 0 6.5
    endloop
  endfacet
  facet normal -0.994522 0.104529 0
    outer loop
      vertex -1.35 0 6.5
      vertex -1.3205 0.280681 8
      vertex -1.3205 0.280681 6.5
    endloop
  endfacet
  facet normal -0.994522 0.104529 0
    outer loop
      vertex -1.3205 0.280681 8
      vertex -1.35 0 6.5
      vertex -1.35 0 8
    endloop
  endfacet
  facet normal 0.743146 0.66913 0
    outer loop
      vertex 1.09217 0.793509 8
      vertex 0.903326 1.00325 6.5
      vertex 0.903326 1.00325 8
    endloop
  endfacet
  facet normal 0.743146 0.66913 0
    outer loop
      vertex 0.903326 1.00325 6.5
      vertex 1.09217 0.793509 8
      vertex 1.09217 0.793509 6.5
    endloop
  endfacet
  facet normal 0.951057 0.309016 0
    outer loop
      vertex 1.3205 0.280681 8
      vertex 1.23329 0.549094 6.5
      vertex 1.23329 0.549094 8
    endloop
  endfacet
  facet normal 0.951057 0.309016 0
    outer loop
      vertex 1.23329 0.549094 6.5
      vertex 1.3205 0.280681 8
      vertex 1.3205 0.280681 6.5
    endloop
  endfacet
  facet normal -0.587784 0.809018 0
    outer loop
      vertex -0.674999 1.16913 6.5
      vertex -0.903326 1.00325 8
      vertex -0.674999 1.16913 8
    endloop
  endfacet
  facet normal -0.587784 0.809018 0
    outer loop
      vertex -0.903326 1.00325 8
      vertex -0.674999 1.16913 6.5
      vertex -0.903326 1.00325 6.5
    endloop
  endfacet
  facet normal -0.20791 0.978148 0
    outer loop
      vertex -0.25 1.31946 6.5
      vertex -0.417172 1.28393 8
      vertex -0.25 1.31946 8
    endloop
  endfacet
  facet normal -0.20791 0.978148 0
    outer loop
      vertex -0.417172 1.28393 8
      vertex -0.25 1.31946 6.5
      vertex -0.417172 1.28393 6.5
    endloop
  endfacet
  facet normal 0.866025 0.5 0
    outer loop
      vertex 1.23329 0.549094 8
      vertex 1.09217 0.793509 6.5
      vertex 1.09217 0.793509 8
    endloop
  endfacet
  facet normal 0.866025 0.5 0
    outer loop
      vertex 1.09217 0.793509 6.5
      vertex 1.23329 0.549094 8
      vertex 1.23329 0.549094 6.5
    endloop
  endfacet
  facet normal 0.406737 0.913545 -0
    outer loop
      vertex 0.674999 1.16913 6.5
      vertex 0.417172 1.28393 8
      vertex 0.674999 1.16913 8
    endloop
  endfacet
  facet normal 0.406737 0.913545 0
    outer loop
      vertex 0.417172 1.28393 8
      vertex 0.674999 1.16913 6.5
      vertex 0.417172 1.28393 6.5
    endloop
  endfacet
  facet normal 0.20791 0.978148 -0
    outer loop
      vertex 0.417172 1.28393 6.5
      vertex 0.25 1.31946 8
      vertex 0.417172 1.28393 8
    endloop
  endfacet
  facet normal 0.20791 0.978148 0
    outer loop
      vertex 0.25 1.31946 8
      vertex 0.417172 1.28393 6.5
      vertex 0.25 1.31946 6.5
    endloop
  endfacet
  facet normal 0.587784 0.809018 -0
    outer loop
      vertex 0.903326 1.00325 6.5
      vertex 0.674999 1.16913 8
      vertex 0.903326 1.00325 8
    endloop
  endfacet
  facet normal 0.587784 0.809018 0
    outer loop
      vertex 0.674999 1.16913 8
      vertex 0.903326 1.00325 6.5
      vertex 0.674999 1.16913 6.5
    endloop
  endfacet
  facet normal -0.866025 0.5 0
    outer loop
      vertex -1.23329 0.549094 6.5
      vertex -1.09217 0.793509 8
      vertex -1.09217 0.793509 6.5
    endloop
  endfacet
  facet normal -0.866025 0.5 0
    outer loop
      vertex -1.09217 0.793509 8
      vertex -1.23329 0.549094 6.5
      vertex -1.23329 0.549094 8
    endloop
  endfacet
  facet normal -0.743146 0.66913 0
    outer loop
      vertex -1.09217 0.793509 6.5
      vertex -0.903326 1.00325 8
      vertex -0.903326 1.00325 6.5
    endloop
  endfacet
  facet normal -0.743146 0.66913 0
    outer loop
      vertex -0.903326 1.00325 8
      vertex -1.09217 0.793509 6.5
      vertex -1.09217 0.793509 8
    endloop
  endfacet
  facet normal -0.951057 0.309016 0
    outer loop
      vertex -1.3205 0.280681 6.5
      vertex -1.23329 0.549094 8
      vertex -1.23329 0.549094 6.5
    endloop
  endfacet
  facet normal -0.951057 0.309016 0
    outer loop
      vertex -1.23329 0.549094 8
      vertex -1.3205 0.280681 6.5
      vertex -1.3205 0.280681 8
    endloop
  endfacet
  facet normal -0.406737 0.913545 0
    outer loop
      vertex -0.417172 1.28393 6.5
      vertex -0.674999 1.16913 8
      vertex -0.417172 1.28393 8
    endloop
  endfacet
  facet normal -0.406737 0.913545 0
    outer loop
      vertex -0.674999 1.16913 8
      vertex -0.417172 1.28393 6.5
      vertex -0.674999 1.16913 6.5
    endloop
  endfacet
  facet normal 0.994522 -0.104529 0
    outer loop
      vertex 1.3205 -0.280681 8
      vertex 1.35 0 6.5
      vertex 1.35 0 8
    endloop
  endfacet
  facet normal 0.994522 -0.104529 0
    outer loop
      vertex 1.35 0 6.5
      vertex 1.3205 -0.280681 8
      vertex 1.3205 -0.280681 6.5
    endloop
  endfacet
  facet normal 0 0 -1
    outer loop
      vertex 1.25 0 6.5
      vertex 1.35 0 6.5
      vertex 1.3205 -0.280681 6.5
    endloop
  endfacet
  facet normal 0 0 -1
    outer loop
      vertex 1.35 0 6.5
      vertex 1.25 0 6.5
      vertex 1.3205 0.280681 6.5
    endloop
  endfacet
  facet normal 0 0 -1
    outer loop
      vertex 1.22268 -0.25989 6.5
      vertex 1.3205 -0.280681 6.5
      vertex 1.23329 -0.549094 6.5
    endloop
  endfacet
  facet normal 0 0 -1
    outer loop
      vertex 1.3205 -0.280681 6.5
      vertex 1.22268 -0.25989 6.5
      vertex 1.25 0 6.5
    endloop
  endfacet
  facet normal 0 0 -1
    outer loop
      vertex 1.23329 -0.549094 6.5
      vertex 1.14193 -0.50842 6.5
      vertex 1.22268 -0.25989 6.5
    endloop
  endfacet
  facet normal 0 0 -1
    outer loop
      vertex 1.09217 -0.793509 6.5
      vertex 1.14193 -0.50842 6.5
      vertex 1.23329 -0.549094 6.5
    endloop
  endfacet
  facet normal 0 0 -1
    outer loop
      vertex 1.09217 -0.793509 6.5
      vertex 1.01127 -0.734731 6.5
      vertex 1.14193 -0.50842 6.5
    endloop
  endfacet
  facet normal 0 0 -1
    outer loop
      vertex 0.903326 -1.00325 6.5
      vertex 1.01127 -0.734731 6.5
      vertex 1.09217 -0.793509 6.5
    endloop
  endfacet
  facet normal 0 0 -1
    outer loop
      vertex 0.903326 -1.00325 6.5
      vertex 0.836412 -0.92893 6.5
      vertex 1.01127 -0.734731 6.5
    endloop
  endfacet
  facet normal 0 0 -1
    outer loop
      vertex 0.674999 -1.16913 6.5
      vertex 0.836412 -0.92893 6.5
      vertex 0.903326 -1.00325 6.5
    endloop
  endfacet
  facet normal 0 0 -1
    outer loop
      vertex 0.674999 -1.16913 6.5
      vertex 0.625 -1.08253 6.5
      vertex 0.836412 -0.92893 6.5
    endloop
  endfacet
  facet normal 0 0 -1
    outer loop
      vertex 0.417172 -1.28393 6.5
      vertex 0.625 -1.08253 6.5
      vertex 0.674999 -1.16913 6.5
    endloop
  endfacet
  facet normal 0 0 -1
    outer loop
      vertex 0.417172 -1.28393 6.5
      vertex 0.386271 -1.18882 6.5
      vertex 0.625 -1.08253 6.5
    endloop
  endfacet
  facet normal 0 0 -1
    outer loop
      vertex 0.25 -1.21779 6.5
      vertex 0.417172 -1.28393 6.5
      vertex 0.25 -1.31946 6.5
    endloop
  endfacet
  facet normal 0 0 -1
    outer loop
      vertex 0.417172 -1.28393 6.5
      vertex 0.25 -1.21779 6.5
      vertex 0.386271 -1.18882 6.5
    endloop
  endfacet
  facet normal 0 0 -1
    outer loop
      vertex 1.22268 0.25989 6.5
      vertex 1.3205 0.280681 6.5
      vertex 1.25 0 6.5
    endloop
  endfacet
  facet normal -0 0 -1
    outer loop
      vertex 1.3205 0.280681 6.5
      vertex 1.22268 0.25989 6.5
      vertex 1.23329 0.549094 6.5
    endloop
  endfacet
  facet normal 0 0 -1
    outer loop
      vertex 1.14193 0.50842 6.5
      vertex 1.23329 0.549094 6.5
      vertex 1.22268 0.25989 6.5
    endloop
  endfacet
  facet normal 0 0 -1
    outer loop
      vertex 1.14193 0.50842 6.5
      vertex 1.09217 0.793509 6.5
      vertex 1.23329 0.549094 6.5
    endloop
  endfacet
  facet normal 0 0 -1
    outer loop
      vertex 1.01127 0.734731 6.5
      vertex 1.09217 0.793509 6.5
      vertex 1.14193 0.50842 6.5
    endloop
  endfacet
  facet normal 0 0 -1
    outer loop
      vertex 1.01127 0.734731 6.5
      vertex 0.903326 1.00325 6.5
      vertex 1.09217 0.793509 6.5
    endloop
  endfacet
  facet normal 0 0 -1
    outer loop
      vertex 0.836412 0.92893 6.5
      vertex 0.903326 1.00325 6.5
      vertex 1.01127 0.734731 6.5
    endloop
  endfacet
  facet normal 0 0 -1
    outer loop
      vertex 0.836412 0.92893 6.5
      vertex 0.674999 1.16913 6.5
      vertex 0.903326 1.00325 6.5
    endloop
  endfacet
  facet normal 0 0 -1
    outer loop
      vertex 0.625 1.08253 6.5
      vertex 0.674999 1.16913 6.5
      vertex 0.836412 0.92893 6.5
    endloop
  endfacet
  facet normal 0 0 -1
    outer loop
      vertex 0.625 1.08253 6.5
      vertex 0.417172 1.28393 6.5
      vertex 0.674999 1.16913 6.5
    endloop
  endfacet
  facet normal 0 0 -1
    outer loop
      vertex 0.386271 1.18882 6.5
      vertex 0.417172 1.28393 6.5
      vertex 0.625 1.08253 6.5
    endloop
  endfacet
  facet normal 0 0 -1
    outer loop
      vertex 0.25 1.21779 6.5
      vertex 0.417172 1.28393 6.5
      vertex 0.386271 1.18882 6.5
    endloop
  endfacet
  facet normal -0 0 -1
    outer loop
      vertex 0.417172 1.28393 6.5
      vertex 0.25 1.21779 6.5
      vertex 0.25 1.31946 6.5
    endloop
  endfacet
  facet normal 0 0 -1
    outer loop
      vertex -0.417172 -1.28393 6.5
      vertex -0.25 -1.21779 6.5
      vertex -0.25 -1.31946 6.5
    endloop
  endfacet
  facet normal -0 0 -1
    outer loop
      vertex -0.25 -1.21779 6.5
      vertex -0.417172 -1.28393 6.5
      vertex -0.386271 -1.18882 6.5
    endloop
  endfacet
  facet normal 0 0 -1
    outer loop
      vertex -0.417172 -1.28393 6.5
      vertex -0.625 -1.08253 6.5
      vertex -0.386271 -1.18882 6.5
    endloop
  endfacet
  facet normal 0 0 -1
    outer loop
      vertex -0.674999 -1.16913 6.5
      vertex -0.625 -1.08253 6.5
      vertex -0.417172 -1.28393 6.5
    endloop
  endfacet
  facet normal 0 0 -1
    outer loop
      vertex -0.674999 -1.16913 6.5
      vertex -0.836412 -0.92893 6.5
      vertex -0.625 -1.08253 6.5
    endloop
  endfacet
  facet normal 0 0 -1
    outer loop
      vertex -0.903326 -1.00325 6.5
      vertex -0.836412 -0.92893 6.5
      vertex -0.674999 -1.16913 6.5
    endloop
  endfacet
  facet normal 0 0 -1
    outer loop
      vertex -0.903326 -1.00325 6.5
      vertex -1.01127 -0.734731 6.5
      vertex -0.836412 -0.92893 6.5
    endloop
  endfacet
  facet normal 0 0 -1
    outer loop
      vertex -1.09217 -0.793509 6.5
      vertex -1.01127 -0.734731 6.5
      vertex -0.903326 -1.00325 6.5
    endloop
  endfacet
  facet normal 0 0 -1
    outer loop
      vertex -1.09217 -0.793509 6.5
      vertex -1.14193 -0.50842 6.5
      vertex -1.01127 -0.734731 6.5
    endloop
  endfacet
  facet normal 0 0 -1
    outer loop
      vertex -1.23329 -0.549094 6.5
      vertex -1.14193 -0.50842 6.5
      vertex -1.09217 -0.793509 6.5
    endloop
  endfacet
  facet normal -0 0 -1
    outer loop
      vertex -1.14193 -0.50842 6.5
      vertex -1.23329 -0.549094 6.5
      vertex -1.22268 -0.25989 6.5
    endloop
  endfacet
  facet normal 0 0 -1
    outer loop
      vertex -1.3205 -0.280681 6.5
      vertex -1.22268 -0.25989 6.5
      vertex -1.23329 -0.549094 6.5
    endloop
  endfacet
  facet normal -0 0 -1
    outer loop
      vertex -1.22268 -0.25989 6.5
      vertex -1.3205 -0.280681 6.5
      vertex -1.25 0 6.5
    endloop
  endfacet
  facet normal 0 0 -1
    outer loop
      vertex -0.417172 1.28393 6.5
      vertex -0.25 1.21779 6.5
      vertex -0.386271 1.18882 6.5
    endloop
  endfacet
  facet normal 0 0 -1
    outer loop
      vertex -0.25 1.21779 6.5
      vertex -0.417172 1.28393 6.5
      vertex -0.25 1.31946 6.5
    endloop
  endfacet
  facet normal 0 0 -1
    outer loop
      vertex -0.624999 1.08253 6.5
      vertex -0.417172 1.28393 6.5
      vertex -0.386271 1.18882 6.5
    endloop
  endfacet
  facet normal 0 0 -1
    outer loop
      vertex -0.624999 1.08253 6.5
      vertex -0.674999 1.16913 6.5
      vertex -0.417172 1.28393 6.5
    endloop
  endfacet
  facet normal 0 0 -1
    outer loop
      vertex -0.836412 0.92893 6.5
      vertex -0.674999 1.16913 6.5
      vertex -0.624999 1.08253 6.5
    endloop
  endfacet
  facet normal 0 0 -1
    outer loop
      vertex -0.836412 0.92893 6.5
      vertex -0.903326 1.00325 6.5
      vertex -0.674999 1.16913 6.5
    endloop
  endfacet
  facet normal 0 0 -1
    outer loop
      vertex -1.01127 0.734731 6.5
      vertex -0.903326 1.00325 6.5
      vertex -0.836412 0.92893 6.5
    endloop
  endfacet
  facet normal 0 0 -1
    outer loop
      vertex -1.01127 0.734731 6.5
      vertex -1.09217 0.793509 6.5
      vertex -0.903326 1.00325 6.5
    endloop
  endfacet
  facet normal 0 0 -1
    outer loop
      vertex -1.14193 0.50842 6.5
      vertex -1.09217 0.793509 6.5
      vertex -1.01127 0.734731 6.5
    endloop
  endfacet
  facet normal 0 0 -1
    outer loop
      vertex -1.23329 0.549094 6.5
      vertex -1.14193 0.50842 6.5
      vertex -1.22268 0.25989 6.5
    endloop
  endfacet
  facet normal 0 0 -1
    outer loop
      vertex -1.14193 0.50842 6.5
      vertex -1.23329 0.549094 6.5
      vertex -1.09217 0.793509 6.5
    endloop
  endfacet
  facet normal 0 0 -1
    outer loop
      vertex -1.3205 0.280681 6.5
      vertex -1.22268 0.25989 6.5
      vertex -1.25 0 6.5
    endloop
  endfacet
  facet normal 0 0 -1
    outer loop
      vertex -1.35 0 6.5
      vertex -1.25 0 6.5
      vertex -1.3205 -0.280681 6.5
    endloop
  endfacet
  facet normal 0 0 -1
    outer loop
      vertex -1.22268 0.25989 6.5
      vertex -1.3205 0.280681 6.5
      vertex -1.23329 0.549094 6.5
    endloop
  endfacet
  facet normal 0 0 -1
    outer loop
      vertex -1.25 0 6.5
      vertex -1.35 0 6.5
      vertex -1.3205 0.280681 6.5
    endloop
  endfacet
  facet normal 0.20791 -0.978148 0
    outer loop
      vertex 0.25 -1.31946 6.5
      vertex 0.417172 -1.28393 8
      vertex 0.25 -1.31946 8
    endloop
  endfacet
  facet normal 0.20791 -0.978148 0
    outer loop
      vertex 0.417172 -1.28393 8
      vertex 0.25 -1.31946 6.5
      vertex 0.417172 -1.28393 6.5
    endloop
  endfacet
  facet normal 0.866025 -0.5 0
    outer loop
      vertex 1.09217 -0.793509 8
      vertex 1.23329 -0.549094 6.5
      vertex 1.23329 -0.549094 8
    endloop
  endfacet
  facet normal 0.866025 -0.5 0
    outer loop
      vertex 1.23329 -0.549094 6.5
      vertex 1.09217 -0.793509 8
      vertex 1.09217 -0.793509 6.5
    endloop
  endfacet
  facet normal -0.587784 -0.809018 0
    outer loop
      vertex -0.903326 -1.00325 6.5
      vertex -0.674999 -1.16913 8
      vertex -0.903326 -1.00325 8
    endloop
  endfacet
  facet normal -0.587784 -0.809018 -0
    outer loop
      vertex -0.674999 -1.16913 8
      vertex -0.903326 -1.00325 6.5
      vertex -0.674999 -1.16913 6.5
    endloop
  endfacet
  facet normal -0.866025 -0.5 0
    outer loop
      vertex -1.09217 -0.793509 6.5
      vertex -1.23329 -0.549094 8
      vertex -1.23329 -0.549094 6.5
    endloop
  endfacet
  facet normal -0.866025 -0.5 0
    outer loop
      vertex -1.23329 -0.549094 8
      vertex -1.09217 -0.793509 6.5
      vertex -1.09217 -0.793509 8
    endloop
  endfacet
  facet normal -0.743146 -0.66913 0
    outer loop
      vertex -0.903326 -1.00325 6.5
      vertex -1.09217 -0.793509 8
      vertex -1.09217 -0.793509 6.5
    endloop
  endfacet
  facet normal -0.743146 -0.66913 0
    outer loop
      vertex -1.09217 -0.793509 8
      vertex -0.903326 -1.00325 6.5
      vertex -0.903326 -1.00325 8
    endloop
  endfacet
  facet normal 0.587784 -0.809018 0
    outer loop
      vertex 0.674999 -1.16913 6.5
      vertex 0.903326 -1.00325 8
      vertex 0.674999 -1.16913 8
    endloop
  endfacet
  facet normal 0.587784 -0.809018 0
    outer loop
      vertex 0.903326 -1.00325 8
      vertex 0.674999 -1.16913 6.5
      vertex 0.903326 -1.00325 6.5
    endloop
  endfacet
  facet normal 0.406737 -0.913545 0
    outer loop
      vertex 0.417172 -1.28393 6.5
      vertex 0.674999 -1.16913 8
      vertex 0.417172 -1.28393 8
    endloop
  endfacet
  facet normal 0.406737 -0.913545 0
    outer loop
      vertex 0.674999 -1.16913 8
      vertex 0.417172 -1.28393 6.5
      vertex 0.674999 -1.16913 6.5
    endloop
  endfacet
  facet normal 0.951057 -0.309016 0
    outer loop
      vertex 1.23329 -0.549094 8
      vertex 1.3205 -0.280681 6.5
      vertex 1.3205 -0.280681 8
    endloop
  endfacet
  facet normal 0.951057 -0.309016 0
    outer loop
      vertex 1.3205 -0.280681 6.5
      vertex 1.23329 -0.549094 8
      vertex 1.23329 -0.549094 6.5
    endloop
  endfacet
  facet normal -0.20791 -0.978148 0
    outer loop
      vertex -0.417172 -1.28393 6.5
      vertex -0.25 -1.31946 8
      vertex -0.417172 -1.28393 8
    endloop
  endfacet
  facet normal -0.20791 -0.978148 -0
    outer loop
      vertex -0.25 -1.31946 8
      vertex -0.417172 -1.28393 6.5
      vertex -0.25 -1.31946 6.5
    endloop
  endfacet
  facet normal -0.951057 -0.309016 0
    outer loop
      vertex -1.23329 -0.549094 6.5
      vertex -1.3205 -0.280681 8
      vertex -1.3205 -0.280681 6.5
    endloop
  endfacet
  facet normal -0.951057 -0.309016 0
    outer loop
      vertex -1.3205 -0.280681 8
      vertex -1.23329 -0.549094 6.5
      vertex -1.23329 -0.549094 8
    endloop
  endfacet
  facet normal -0.994522 -0.104529 0
    outer loop
      vertex -1.3205 -0.280681 6.5
      vertex -1.35 0 8
      vertex -1.35 0 6.5
    endloop
  endfacet
  facet normal -0.994522 -0.104529 0
    outer loop
      vertex -1.35 0 8
      vertex -1.3205 -0.280681 6.5
      vertex -1.3205 -0.280681 8
    endloop
  endfacet
  facet normal 0.743146 -0.66913 0
    outer loop
      vertex 0.903326 -1.00325 8
      vertex 1.09217 -0.793509 6.5
      vertex 1.09217 -0.793509 8
    endloop
  endfacet
  facet normal 0.743146 -0.66913 0
    outer loop
      vertex 1.09217 -0.793509 6.5
      vertex 0.903326 -1.00325 8
      vertex 0.903326 -1.00325 6.5
    endloop
  endfacet
  facet normal -0.406737 -0.913545 0
    outer loop
      vertex -0.674999 -1.16913 6.5
      vertex -0.417172 -1.28393 8
      vertex -0.674999 -1.16913 8
    endloop
  endfacet
  facet normal -0.406737 -0.913545 -0
    outer loop
      vertex -0.417172 -1.28393 8
      vertex -0.674999 -1.16913 6.5
      vertex -0.417172 -1.28393 6.5
    endloop
  endfacet
  facet normal 1 0 0
    outer loop
      vertex -0.25 1.31946 8
      vertex -0.25 1.21779 6.5
      vertex -0.25 1.31946 6.5
    endloop
  endfacet
  facet normal 1 0 0
    outer loop
      vertex -0.25 1.21779 6.5
      vertex -0.25 -1.21779 6.5
      vertex -0.25 1.21779 5.01
    endloop
  endfacet
  facet normal 1 0 0
    outer loop
      vertex -0.25 1.31946 8
      vertex -0.25 -1.21779 6.5
      vertex -0.25 1.21779 6.5
    endloop
  endfacet
  facet normal 1 -0 0
    outer loop
      vertex -0.25 -1.31946 8
      vertex -0.25 -1.21779 6.5
      vertex -0.25 1.31946 8
    endloop
  endfacet
  facet normal 1 0 0
    outer loop
      vertex -0.25 -1.21779 6.5
      vertex -0.25 -1.31946 8
      vertex -0.25 -1.31946 6.5
    endloop
  endfacet
  facet normal 1 0 0
    outer loop
      vertex -0.25 1.21779 5.01
      vertex -0.25 -1.21779 6.5
      vertex -0.25 -1.21779 5.01
    endloop
  endfacet
  facet normal -1 0 0
    outer loop
      vertex 0.25 1.21779 5.01
      vertex 0.25 -1.21779 5.01
      vertex 0.25 1.21779 6.5
    endloop
  endfacet
  facet normal -1 0 0
    outer loop
      vertex 0.25 1.21779 6.5
      vertex 0.25 1.31946 8
      vertex 0.25 1.31946 6.5
    endloop
  endfacet
  facet normal -1 0 0
    outer loop
      vertex 0.25 -1.21779 6.5
      vertex 0.25 1.21779 6.5
      vertex 0.25 -1.21779 5.01
    endloop
  endfacet
  facet normal -1 0 0
    outer loop
      vertex 0.25 1.21779 6.5
      vertex 0.25 -1.21779 6.5
      vertex 0.25 1.31946 8
    endloop
  endfacet
  facet normal -1 0 0
    outer loop
      vertex 0.25 -1.31946 8
      vertex 0.25 -1.21779 6.5
      vertex 0.25 -1.31946 6.5
    endloop
  endfacet
  facet normal -1 0 0
    outer loop
      vertex 0.25 -1.21779 6.5
      vertex 0.25 -1.31946 8
      vertex 0.25 1.31946 8
    endloop
  endfacet
  facet normal 0 0 1
    outer loop
      vertex -0.25 1.21779 5.01
      vertex 0.25 1.21779 5.01
      vertex 0.13066 1.24315 5.01
    endloop
  endfacet
  facet normal 0 0 1
    outer loop
      vertex 0.25 1.21779 5.01
      vertex -0.25 1.21779 5.01
      vertex 0.25 -1.21779 5.01
    endloop
  endfacet
  facet normal 0 0 1
    outer loop
      vertex -0.25 1.21779 5.01
      vertex 0.13066 1.24315 5.01
      vertex -0.13066 1.24315 5.01
    endloop
  endfacet
  facet normal 0 0 1
    outer loop
      vertex -0.25 -1.21779 5.01
      vertex 0.25 -1.21779 5.01
      vertex -0.25 1.21779 5.01
    endloop
  endfacet
  facet normal 0 0 1
    outer loop
      vertex 0.25 -1.21779 5.01
      vertex -0.25 -1.21779 5.01
      vertex 0.13066 -1.24315 5.01
    endloop
  endfacet
  facet normal 0 0 1
    outer loop
      vertex 0.13066 -1.24315 5.01
      vertex -0.25 -1.21779 5.01
      vertex -0.13066 -1.24315 5.01
    endloop
  endfacet
endsolid OpenSCAD_Model
